<svg xmlns="http://www.w3.org/2000/svg" viewBox="0 0 960 540" width="960" height="540" role="img" aria-label="Cover art coming soon">
  <rect width="960" height="540" fill="#F6E7D2"/>
  <g fill="#2D5D2E" opacity=".18">
    <circle cx="120" cy="110" r="26"/><circle cx="330" cy="60" r="16"/><circle cx="820" cy="150" r="30"/>
    <circle cx="700" cy="430" r="20"/><circle cx="180" cy="450" r="14"/><circle cx="500" cy="500" r="24"/>
  </g>
  <g transform="translate(380,170)">
    <path d="M0 60h30V30h40v30h50V0h40v60h50V30h40v30h30v170H0z" fill="#2D5D2E"/>
    <rect x="182" y="-70" width="8" height="80" rx="4" fill="#2D5D2E"/>
    <path d="M190-64h60l-14 22 14 22h-60z" fill="#F96318"/>
    <path d="M60 230V150a80 80 0 0 1 160 0v80z" fill="#FDF2E2"/>
  </g>
  <text x="480" y="470" text-anchor="middle" font-family="'Courier New',monospace" font-size="26" fill="#4B524B" letter-spacing="3">COVER ART COMING SOON</text>
</svg>
